# xmcd
#
# Track frame offsets:
#  150
#  14939
#  28111
#  38797
#  51594
#  66326
#  76121
#  89991
#  103533
#  116055
#
# Disc length: 1750 seconds
#
# Revision: 0
# Processed by: cddbd v1.4PL0 Copyright (c) Steve Scherf et al.
# Submitted via: AltoMP3_Maker 3.0
#
DISCID=9006d40a
DTITLE=Bill Tripp - Hurricane
DYEAR=1900
DGENRE=
TTITLE0=Hurricane
TTITLE1=Last Cowboy
TTITLE2=Dark Hollow
TTITLE3=Darsey Farrow
TTITLE4=When January Comes
TTITLE5=You Can't Cry Your Way Out Of The Blues
TTITLE6=Perfect Man
TTITLE7=Talk About Me Down On Your Knees
TTITLE8=What Shall I Do With Jesus
TTITLE9=Rebels Last Letter
EXTD=
EXTT0=
EXTT1=
EXTT2=
EXTT3=
EXTT4=
EXTT5=
EXTT6=
EXTT7=
EXTT8=
EXTT9=
PLAYORDER=
